<svg id="40947dbd-7f1a-4d9a-a381-f9fc31d7cfa7" data-name="logo" xmlns="http://www.w3.org/2000/svg" viewBox="0 0 61.927 56.951">
	<defs>
		<style>
			.cb8aa503-9af9-4555-8fa1-ec48202be73c{fill:#4d4d4d;}
			.\33 9ceff52-5c76-4a32-b1d8-77e586b57d76,
      .cb8aa503-9af9-4555-8fa1-ec48202be73c{fill-rule:evenodd;}
			.\33 9ceff52-5c76-4a32-b1d8-77e586b57d76{fill:#ca0a17;}
		</style>
	</defs>
	<title>logo</title>
	<path class="cb8aa503-9af9-4555-8fa1-ec48202be73c" d="M286.428-142.162c-59.819,31.486,2.665,54.725,33.971,1.741-18.141,28.584-81.845,32.249-33.971-1.741Z" transform="translate(-259.779 165.899)"/>
	<path class="39ceff52-5c76-4a32-b1d8-77e586b57d76" d="M273.712-165.157c.353.855,1.509.122,2.151,1.5,1.477,4.307-.931,8.216-1.8,9.285-3.179,4.488.032,4.55,1,3.481,12.651-11.482,32.077-17.59,39.815-13.957,19.041,8.917-5.49,31.211-27.614,35.212,13.935-5.13,22.476-10.444,25.816-17.681,3.885-8.551-3.243-8.918-10.339-8.43-12.458.8-35.9,14.17-36.8,22.843-2.762-2.077-12.331-12.979-.064-23.332.8-1.038,2.151-1.649,1.734-4.427-1.638-1.8-1.894-.214-3.628-.947-.739-.55-1.284-.58-.642-2.535,1.027-.58,3.532.122,5.3-.671.385-.856,3.371-1.588,5.073-.336Z" transform="translate(-259.779 165.899)"/>
</svg>