<svg id="ea72bbcc-4edc-4f0c-bc9f-3598ab34d6cb" data-name="图层 1" xmlns="http://www.w3.org/2000/svg" viewBox="0 0 296.563 56.951">
	<defs>
		<style>
    .\31 4f62426-e488-473b-90e9-92fb9c4a976e{fill:#4d4d4d;}
    .\31 4f62426-e488-473b-90e9-92fb9c4a976e,.\31 b72577d-a806-4a5c-9775-e89c905e7948{fill-rule:evenodd;}
    .\31 b72577d-a806-4a5c-9775-e89c905e7948{fill:#ca0a17;}
    .\30 70dc80b-8ddb-4dec-be56-d40936c1bf93{fill:#fff;}
    .\36 29fb0ca-928c-4b56-a80d-faece7932959{fill:#cc0518;}
		</style>
	</defs>
	<title>ec6 icon</title>
	<path class="14f62426-e488-473b-90e9-92fb9c4a976e" d="M167.808-353.123c-59.819,31.486,2.665,54.725,33.971,1.741-18.141,28.584-81.845,32.249-33.971-1.741Z" transform="translate(-141.16 376.86)"/>
	<path class="1b72577d-a806-4a5c-9775-e89c905e7948" d="M155.093-376.118c.353.855,1.509.122,2.151,1.5,1.477,4.307-.931,8.216-1.8,9.285-3.179,4.488.032,4.55,1,3.481,12.651-11.482,32.077-17.59,39.815-13.957,19.041,8.917-5.49,31.211-27.614,35.212,13.935-5.13,22.476-10.444,25.816-17.681,3.885-8.551-3.243-8.918-10.339-8.43-12.458.8-35.9,14.17-36.8,22.843-2.762-2.077-12.331-12.979-.064-23.332.8-1.038,2.151-1.649,1.734-4.427-1.638-1.8-1.894-.214-3.628-.947-.739-.55-1.284-.58-.642-2.535,1.027-.58,3.532.122,5.3-.671.385-.856,3.371-1.588,5.073-.336Z" transform="translate(-141.16 376.86)"/>
	<path class="070dc80b-8ddb-4dec-be56-d40936c1bf93" d="M214.988-362.026l-3.984-.84a10.649,10.649,0,0,1,2.92-6.113,7.912,7.912,0,0,1,5.654-2.09,7.785,7.785,0,0,1,5.879,2.207,7.8,7.8,0,0,1,2.129,5.645,11.53,11.53,0,0,1-3.066,7.578,53.461,53.461,0,0,1-8.828,7.852h12.051l-.2,3.867H211v-3.828q7.753-6.68,9.893-9.727a9.885,9.885,0,0,0,2.139-5.488,4.957,4.957,0,0,0-1-3.2,3.3,3.3,0,0,0-2.718-1.25Q215.67-367.417,214.988-362.026Z" transform="translate(-141.16 376.86)"/>
	<path class="070dc80b-8ddb-4dec-be56-d40936c1bf93" d="M240.5-370.874h3.223V-347.2h4.336v3.281H234.773V-347.2H239.4v-18.262a15.947,15.947,0,0,1-4.746,3.77v-4.1A18.012,18.012,0,0,0,240.5-370.874Z" transform="translate(-141.16 376.86)"/>
	<path class="070dc80b-8ddb-4dec-be56-d40936c1bf93" d="M264.832-359.038l-3.184.859q-.879-2.969-3.34-2.969a2.45,2.45,0,0,0-1.826.7,2.38,2.38,0,0,0-.693,1.738,2.041,2.041,0,0,0,.7,1.719,12.583,12.583,0,0,0,3.223,1.367,12.158,12.158,0,0,1,4.473,2.334,4.76,4.76,0,0,1,1.367,3.623,5.8,5.8,0,0,1-1.953,4.424,7.459,7.459,0,0,1-5.273,1.807q-6.27,0-7.109-5.742l3.457-.645q.664,3.4,3.77,3.4a3.177,3.177,0,0,0,2.354-.781,2.549,2.549,0,0,0,.771-1.855,2.509,2.509,0,0,0-.527-1.475,6.364,6.364,0,0,0-2.949-1.514,21.143,21.143,0,0,1-3.506-1.387,5.218,5.218,0,0,1-1.943-1.865,5.111,5.111,0,0,1-.762-2.764,5.732,5.732,0,0,1,1.836-4.287,6.558,6.558,0,0,1,4.746-1.768Q263.406-364.116,264.832-359.038Z" transform="translate(-141.16 376.86)"/>
	<path class="070dc80b-8ddb-4dec-be56-d40936c1bf93" d="M272.82-366.3h-4.277v-4.316h4.277Zm-4.18,2.656H272.7v19.727h-4.062Z" transform="translate(-141.16 376.86)"/>
	<path class="070dc80b-8ddb-4dec-be56-d40936c1bf93" d="M277.527-370.581h4.063v26.66h-4.062Z" transform="translate(-141.16 376.86)"/>
	<path class="070dc80b-8ddb-4dec-be56-d40936c1bf93" d="M286.375-370.581h4.063v15.757l6.368-8.823h4.022l-5.1,6.793,5.664,12.933H297l-3.946-9.886-2.619,3.616v6.27h-4.062Z" transform="translate(-141.16 376.86)"/>
	<path class="070dc80b-8ddb-4dec-be56-d40936c1bf93" d="M303.406-363.647h3.574v4.414q1.646-4.824,4.939-4.824a5.642,5.642,0,0,1,.744.059v4.238a7.545,7.545,0,0,0-.823-.059q-4.373,0-4.372,5.859v10.039h-4.062Z" transform="translate(-141.16 376.86)"/>
	<path class="070dc80b-8ddb-4dec-be56-d40936c1bf93" d="M328.855-353.979q0,10.547-7.812,10.547a6.877,6.877,0,0,1-5.654-2.549q-2.061-2.549-2.061-7.8,0-10.332,7.813-10.332a6.923,6.923,0,0,1,5.635,2.52Q328.855-359.077,328.855-353.979Zm-4.336.205q0-4.154-.925-5.705a2.812,2.812,0,0,0-2.5-1.551q-3.428,0-3.428,7.256a14.119,14.119,0,0,0,.8,5.481,2.71,2.71,0,0,0,2.629,1.775,2.716,2.716,0,0,0,2.619-1.8A13.99,13.99,0,0,0,324.52-353.774Z" transform="translate(-141.16 376.86)"/>
	<path class="070dc80b-8ddb-4dec-be56-d40936c1bf93" d="M336.375-358.061l-3.926-.488a5.885,5.885,0,0,1,2.429-4.1,8.346,8.346,0,0,1,5-1.465,7.519,7.519,0,0,1,4.242,1.064,4.559,4.559,0,0,1,2,2.529,17.766,17.766,0,0,1,.409,4.434v6.719a26.717,26.717,0,0,0,.352,5.449h-3.848a15.513,15.513,0,0,1-.254-3.281q-1.852,3.77-5.537,3.77a5.372,5.372,0,0,1-4.007-1.533,5.683,5.683,0,0,1-1.511-4.17,6.334,6.334,0,0,1,2.213-5.1q2.213-1.875,7.672-1.875.272,0,.857.02v-.8a6.391,6.391,0,0,0-.633-3.184,2.409,2.409,0,0,0-2.268-1.074Q336.9-361.147,336.375-358.061Zm6.094,4.531q-.779-.078-1.187-.078-5.3,0-5.3,4.16,0,3.028,2.629,3.027a3.3,3.3,0,0,0,2.7-1.641,7.706,7.706,0,0,0,1.158-4.512Z" transform="translate(-141.16 376.86)"/>
	<path class="070dc80b-8ddb-4dec-be56-d40936c1bf93" d="M361.355-370.581h4.063v26.66h-3.75v-2.988a4.966,4.966,0,0,1-4.886,3.34,5.442,5.442,0,0,1-4.993-2.793,14.193,14.193,0,0,1-1.664-7.324q0-4.863,1.84-7.578a5.653,5.653,0,0,1,4.895-2.715,4.588,4.588,0,0,1,4.5,2.617Zm0,15.051q0-3.042-1.146-4.262a3.285,3.285,0,0,0-2.369-1.219q-3.379,0-3.38,6.944,0,7.412,3.419,7.412a3.153,3.153,0,0,0,2.4-1.229q1.078-1.229,1.078-4.271Z" transform="translate(-141.16 376.86)"/>
	<path class="070dc80b-8ddb-4dec-be56-d40936c1bf93" d="M370.32-348.959h4.453v5.039H370.32Z" transform="translate(-141.16 376.86)"/>
	<path class="070dc80b-8ddb-4dec-be56-d40936c1bf93" d="M393.406-357.006l-3.926.43a7.2,7.2,0,0,0-1-3.447,2.417,2.417,0,0,0-1.992-.869,2.749,2.749,0,0,0-2.637,1.67,14.648,14.648,0,0,0-.82,5.869q0,6.563,3.457,6.563,2.656,0,2.988-4.277l3.926.352q-.8,7.285-7.207,7.285a6.282,6.282,0,0,1-5.615-2.734,13.487,13.487,0,0,1-1.826-7.559q0-5.078,1.973-7.734a6.711,6.711,0,0,1,5.742-2.656Q392.547-364.116,393.406-357.006Z" transform="translate(-141.16 376.86)"/>
	<path class="070dc80b-8ddb-4dec-be56-d40936c1bf93" d="M410.633-353.979q0,10.547-7.812,10.547a6.877,6.877,0,0,1-5.654-2.549q-2.061-2.549-2.061-7.8,0-10.332,7.813-10.332a6.923,6.923,0,0,1,5.635,2.52Q410.633-359.077,410.633-353.979Zm-4.336.205q0-4.154-.925-5.705a2.812,2.812,0,0,0-2.5-1.551q-3.428,0-3.428,7.256a14.119,14.119,0,0,0,.8,5.481,2.71,2.71,0,0,0,2.629,1.775,2.716,2.716,0,0,0,2.619-1.8A13.99,13.99,0,0,0,406.3-353.774Z" transform="translate(-141.16 376.86)"/>
	<path class="070dc80b-8ddb-4dec-be56-d40936c1bf93" d="M414.48-363.647h3.75v3.008a4.983,4.983,0,0,1,4.858-3.477,4.163,4.163,0,0,1,4.508,3.672,5.024,5.024,0,0,1,5-3.672,5.381,5.381,0,0,1,2.994.781,4.094,4.094,0,0,1,1.669,2.07,16.637,16.637,0,0,1,.468,4.863v12.48H433.66v-12.134a9.926,9.926,0,0,0-.48-3.785,1.927,1.927,0,0,0-1.931-1q-3.1,0-3.1,5.365v11.549H424.09v-12a16.13,16.13,0,0,0-.205-3.307,2.159,2.159,0,0,0-.762-1.18,2.284,2.284,0,0,0-1.436-.429,2.557,2.557,0,0,0-2.422,1.278,8.972,8.972,0,0,0-.723,4.185v11.452H414.48Z" transform="translate(-141.16 376.86)"/>
	<path class="070dc80b-8ddb-4dec-be56-d40936c1bf93" d="M211.464-333.153h4.441v1.061h-3.117v2.391h2.5v1.061h-2.5v3.486h-1.324Z" transform="translate(-141.16 376.86)"/>
	<path class="070dc80b-8ddb-4dec-be56-d40936c1bf93" d="M221.791-328.172q0,3.164-2.344,3.164a2.063,2.063,0,0,1-1.7-.765,3.684,3.684,0,0,1-.618-2.341q0-3.1,2.344-3.1a2.077,2.077,0,0,1,1.69.756A3.533,3.533,0,0,1,221.791-328.172Zm-1.3.062a3.662,3.662,0,0,0-.277-1.711.844.844,0,0,0-.751-.465q-1.028,0-1.028,2.177a4.248,4.248,0,0,0,.239,1.645.814.814,0,0,0,.789.532.815.815,0,0,0,.786-.541A4.211,4.211,0,0,0,220.49-328.111Z" transform="translate(-141.16 376.86)"/>
	<path class="070dc80b-8ddb-4dec-be56-d40936c1bf93" d="M223.846-331.073h1.072v1.324q.494-1.447,1.481-1.447a1.707,1.707,0,0,1,.224.018v1.271a2.278,2.278,0,0,0-.247-.018q-1.312,0-1.312,1.758v3.012h-1.219Z" transform="translate(-141.16 376.86)"/>
	<path class="070dc80b-8ddb-4dec-be56-d40936c1bf93" d="M232.316-327.932h-3.346a2.715,2.715,0,0,0,.324,1.6,1.006,1.006,0,0,0,.815.4q.817,0,1.034-1.1l1.119.146a2.11,2.11,0,0,1-2.191,1.881,2.112,2.112,0,0,1-1.711-.768,3.441,3.441,0,0,1-.639-2.25,3.772,3.772,0,0,1,.645-2.355,2.068,2.068,0,0,1,1.723-.832,1.96,1.96,0,0,1,1.271.416,2.212,2.212,0,0,1,.727,1.093A6.463,6.463,0,0,1,232.316-327.932Zm-1.248-.826q0-1.564-1.02-1.564-.955,0-1.049,1.564Z" transform="translate(-141.16 376.86)"/>
	<path class="070dc80b-8ddb-4dec-be56-d40936c1bf93" d="M235.483-331.87H234.2v-1.295h1.283Zm-1.254.8h1.219v5.918h-1.219Z" transform="translate(-141.16 376.86)"/>
	<path class="070dc80b-8ddb-4dec-be56-d40936c1bf93" d="M242.39-332.016v.9a1.44,1.44,0,0,0-.281-.035q-.539,0-.639.65a2,2,0,0,1,.445,1.271,1.83,1.83,0,0,1-.557,1.354,2.039,2.039,0,0,1-1.5.551,2.891,2.891,0,0,1-.75-.105q-.445.17-.445.516a.367.367,0,0,0,.237.387,5.964,5.964,0,0,0,1.257.141,7.068,7.068,0,0,1,1.324.164,1.256,1.256,0,0,1,.712.478,1.553,1.553,0,0,1,.267.946,1.541,1.541,0,0,1-.7,1.368,3.564,3.564,0,0,1-1.986.466,3.171,3.171,0,0,1-1.813-.407,1.266,1.266,0,0,1-.571-1.081,1.122,1.122,0,0,1,.861-1.143,1.08,1.08,0,0,1-.645-.967,1.3,1.3,0,0,1,.873-1.189,1.7,1.7,0,0,1-.762-1.518,1.822,1.822,0,0,1,.58-1.4,2.114,2.114,0,0,1,1.494-.536,2.491,2.491,0,0,1,1.119.258,1.429,1.429,0,0,1,.354-.853,1.091,1.091,0,0,1,.759-.237A2.8,2.8,0,0,1,242.39-332.016Zm-3.381,6.615a.807.807,0,0,0-.51.756.675.675,0,0,0,.328.621,2.207,2.207,0,0,0,1.09.2q1.406,0,1.406-.814a.572.572,0,0,0-.267-.548A2.61,2.61,0,0,0,240-325.36Q239.343-325.383,239.009-325.4Zm1.646-3.85q0-1.16-.8-1.16-.873,0-.873,1.172,0,1.137.844,1.137T240.655-329.25Z" transform="translate(-141.16 376.86)"/>
	<path class="070dc80b-8ddb-4dec-be56-d40936c1bf93" d="M244-331.073h1.125v.914a1.479,1.479,0,0,1,1.468-1.055,1.522,1.522,0,0,1,.966.287,1.229,1.229,0,0,1,.464.688,5.96,5.96,0,0,1,.1,1.269v3.814H246.9V-328.9a2.74,2.74,0,0,0-.135-1.051.576.576,0,0,0-.576-.278.833.833,0,0,0-.715.354,2.639,2.639,0,0,0-.256,1.408v3.313H244Z" transform="translate(-141.16 376.86)"/>
	<path class="070dc80b-8ddb-4dec-be56-d40936c1bf93" d="M253.779-332.614l1.1-.105v1.646h1.131v.984h-1.131v2.609a7.433,7.433,0,0,0,.035.916.576.576,0,0,0,.211.369.937.937,0,0,0,.586.143,3.378,3.378,0,0,0,.492-.041v.978a4.383,4.383,0,0,1-.914.106,1.754,1.754,0,0,1-1.049-.267,1.177,1.177,0,0,1-.463-.724,7.125,7.125,0,0,1-.1-1.395v-2.7h-.768v-.984h.8Z" transform="translate(-141.16 376.86)"/>
	<path class="070dc80b-8ddb-4dec-be56-d40936c1bf93" d="M257.731-331.073H258.8v1.324q.494-1.447,1.481-1.447a1.682,1.682,0,0,1,.224.018v1.271a2.246,2.246,0,0,0-.247-.018q-1.311,0-1.312,1.758v3.012h-1.219Z" transform="translate(-141.16 376.86)"/>
	<path class="070dc80b-8ddb-4dec-be56-d40936c1bf93" d="M263-329.4l-1.178-.146a1.765,1.765,0,0,1,.729-1.23,2.5,2.5,0,0,1,1.5-.439,2.255,2.255,0,0,1,1.272.319,1.369,1.369,0,0,1,.6.759,5.313,5.313,0,0,1,.123,1.33v2.016a8.017,8.017,0,0,0,.105,1.635H265a4.649,4.649,0,0,1-.076-.984,1.777,1.777,0,0,1-1.661,1.131,1.612,1.612,0,0,1-1.2-.46,1.7,1.7,0,0,1-.453-1.251,1.9,1.9,0,0,1,.664-1.529,3.6,3.6,0,0,1,2.3-.562q.082,0,.258.006v-.24a1.912,1.912,0,0,0-.19-.955.722.722,0,0,0-.68-.322Q263.16-330.323,263-329.4Zm1.828,1.359c-.156-.016-.274-.023-.356-.023q-1.589,0-1.589,1.248,0,.908.788.908a.989.989,0,0,0,.81-.492,2.314,2.314,0,0,0,.348-1.354Z" transform="translate(-141.16 376.86)"/>
	<path class="070dc80b-8ddb-4dec-be56-d40936c1bf93" d="M271.4-333.153h1.219v8H271.49v-.9a1.49,1.49,0,0,1-1.466,1,1.634,1.634,0,0,1-1.5-.838,4.266,4.266,0,0,1-.5-2.2,4.025,4.025,0,0,1,.552-2.273,1.7,1.7,0,0,1,1.469-.814,1.376,1.376,0,0,1,1.349.785Zm0,4.516a1.859,1.859,0,0,0-.344-1.279.985.985,0,0,0-.711-.366q-1.014,0-1.014,2.083,0,2.224,1.025,2.224a.947.947,0,0,0,.72-.369,1.956,1.956,0,0,0,.323-1.281Z" transform="translate(-141.16 376.86)"/>
	<path class="070dc80b-8ddb-4dec-be56-d40936c1bf93" d="M279.246-327.932H275.9a2.715,2.715,0,0,0,.324,1.6,1.006,1.006,0,0,0,.815.4q.817,0,1.034-1.1l1.119.146A2.11,2.11,0,0,1,277-325.008a2.112,2.112,0,0,1-1.711-.768,3.441,3.441,0,0,1-.639-2.25,3.772,3.772,0,0,1,.645-2.355,2.068,2.068,0,0,1,1.723-.832,1.96,1.96,0,0,1,1.271.416,2.212,2.212,0,0,1,.727,1.093A6.463,6.463,0,0,1,279.246-327.932ZM278-328.758q0-1.564-1.02-1.564-.955,0-1.049,1.564Z" transform="translate(-141.16 376.86)"/>
	<path class="629fb0ca-928c-4b56-a80d-faece7932959" d="M284.315-333.153h1.964l1.6,5.766,1.637-5.766h1.882v8h-1.242v-6.826l-1.9,6.826h-.962l-1.866-6.832v6.832h-1.107Z" transform="translate(-141.16 376.86)"/>
	<path class="629fb0ca-928c-4b56-a80d-faece7932959" d="M294.649-330.586l-1.2-.252a3.194,3.194,0,0,1,.876-1.834,2.374,2.374,0,0,1,1.7-.627,2.336,2.336,0,0,1,1.764.662,2.339,2.339,0,0,1,.639,1.693,3.459,3.459,0,0,1-.92,2.273,16.043,16.043,0,0,1-2.648,2.355h3.615l-.059,1.16h-4.963V-326.3a20.3,20.3,0,0,0,2.968-2.918,2.966,2.966,0,0,0,.642-1.646,1.49,1.49,0,0,0-.3-.961.991.991,0,0,0-.815-.375Q294.853-332.2,294.649-330.586Z" transform="translate(-141.16 376.86)"/>
	<path class="629fb0ca-928c-4b56-a80d-faece7932959" d="M300.857-333.153h2.42a4.993,4.993,0,0,1,1.389.146,1.482,1.482,0,0,1,.8.653,2.222,2.222,0,0,1,.328,1.233,1.687,1.687,0,0,1-1.189,1.752,1.91,1.91,0,0,1,1.436,2.01,2.3,2.3,0,0,1-.565,1.544,2.787,2.787,0,0,1-2.165.659h-2.455Zm1.295,3.316h.838a1.541,1.541,0,0,0,1.166-.325,1.239,1.239,0,0,0,.281-.841,1.05,1.05,0,0,0-.322-.864,1.57,1.57,0,0,0-1-.261h-.967Zm0,3.621h1.066q1.465,0,1.465-1.295a1.429,1.429,0,0,0-.311-.9,1.558,1.558,0,0,0-1.266-.4h-.955Z" transform="translate(-141.16 376.86)"/>
	<path class="070dc80b-8ddb-4dec-be56-d40936c1bf93" d="M311.389-331.073h1.125v.973a1.533,1.533,0,0,1,1.462-1.072,1.691,1.691,0,0,1,1.445.782,3.848,3.848,0,0,1,.55,2.229,4.523,4.523,0,0,1-.5,2.2,1.652,1.652,0,0,1-1.551.908,1.489,1.489,0,0,1-1.313-.721v2.619h-1.219Zm1.219,3.442a3.663,3.663,0,0,0,.084.886,1.067,1.067,0,0,0,.347.544.889.889,0,0,0,.595.225q1.037,0,1.037-2.188,0-2.118-1.014-2.118a.887.887,0,0,0-.749.433,2.151,2.151,0,0,0-.3,1.234Z" transform="translate(-141.16 376.86)"/>
	<path class="070dc80b-8ddb-4dec-be56-d40936c1bf93" d="M318.019-333.153h1.219v8h-1.219Z" transform="translate(-141.16 376.86)"/>
	<path class="070dc80b-8ddb-4dec-be56-d40936c1bf93" d="M322.675-329.4l-1.178-.146a1.765,1.765,0,0,1,.729-1.23,2.5,2.5,0,0,1,1.5-.439,2.255,2.255,0,0,1,1.272.319,1.369,1.369,0,0,1,.6.759,5.313,5.313,0,0,1,.123,1.33v2.016a8.017,8.017,0,0,0,.105,1.635h-1.154a4.649,4.649,0,0,1-.076-.984,1.777,1.777,0,0,1-1.661,1.131,1.612,1.612,0,0,1-1.2-.46,1.7,1.7,0,0,1-.453-1.251,1.9,1.9,0,0,1,.664-1.529,3.6,3.6,0,0,1,2.3-.562q.082,0,.258.006v-.24a1.912,1.912,0,0,0-.19-.955.722.722,0,0,0-.68-.322Q322.832-330.323,322.675-329.4Zm1.828,1.359c-.156-.016-.274-.023-.356-.023q-1.589,0-1.589,1.248,0,.908.788.908a.989.989,0,0,0,.81-.492,2.314,2.314,0,0,0,.348-1.354Z" transform="translate(-141.16 376.86)"/>
	<path class="070dc80b-8ddb-4dec-be56-d40936c1bf93" d="M328.209-332.614l1.1-.105v1.646h1.131v.984h-1.131v2.609a7.433,7.433,0,0,0,.035.916.576.576,0,0,0,.211.369.937.937,0,0,0,.586.143,3.378,3.378,0,0,0,.492-.041v.978a4.383,4.383,0,0,1-.914.106,1.754,1.754,0,0,1-1.049-.267,1.177,1.177,0,0,1-.463-.724,7.125,7.125,0,0,1-.1-1.395v-2.7h-.768v-.984h.8Z" transform="translate(-141.16 376.86)"/>
	<path class="070dc80b-8ddb-4dec-be56-d40936c1bf93" d="M333.527-331.073h1.061v.984h-1.061v4.934h-1.2v-4.934h-.773v-.984h.773a4.57,4.57,0,0,1,.182-1.456,1.3,1.3,0,0,1,.536-.63,1.923,1.923,0,0,1,1.011-.229,3.666,3.666,0,0,1,.721.07v.973a2.9,2.9,0,0,0-.463-.041.869.869,0,0,0-.536.135.561.561,0,0,0-.214.343A5.336,5.336,0,0,0,333.527-331.073Z" transform="translate(-141.16 376.86)"/>
	<path class="070dc80b-8ddb-4dec-be56-d40936c1bf93" d="M340.492-328.172q0,3.164-2.344,3.164a2.063,2.063,0,0,1-1.7-.765,3.684,3.684,0,0,1-.618-2.341q0-3.1,2.344-3.1a2.077,2.077,0,0,1,1.69.756A3.533,3.533,0,0,1,340.492-328.172Zm-1.3.062a3.662,3.662,0,0,0-.277-1.711.845.845,0,0,0-.751-.465q-1.028,0-1.028,2.177a4.248,4.248,0,0,0,.239,1.645.814.814,0,0,0,.789.532.813.813,0,0,0,.785-.541A4.189,4.189,0,0,0,339.191-328.111Z" transform="translate(-141.16 376.86)"/>
	<path class="070dc80b-8ddb-4dec-be56-d40936c1bf93" d="M342.546-331.073h1.072v1.324q.494-1.447,1.481-1.447a1.682,1.682,0,0,1,.224.018v1.271a2.246,2.246,0,0,0-.247-.018q-1.311,0-1.312,1.758v3.012h-1.219Z" transform="translate(-141.16 376.86)"/>
	<path class="070dc80b-8ddb-4dec-be56-d40936c1bf93" d="M346.716-331.073h1.125v.9a1.494,1.494,0,0,1,1.457-1.043,1.249,1.249,0,0,1,1.353,1.1,1.507,1.507,0,0,1,1.5-1.1,1.611,1.611,0,0,1,.9.234,1.227,1.227,0,0,1,.5.621,4.978,4.978,0,0,1,.141,1.459v3.744H352.47v-3.64a2.966,2.966,0,0,0-.145-1.136.578.578,0,0,0-.579-.3q-.929,0-.929,1.609v3.465H349.6v-3.6a4.839,4.839,0,0,0-.062-.992.647.647,0,0,0-.229-.354.685.685,0,0,0-.431-.129.768.768,0,0,0-.727.383,2.691,2.691,0,0,0-.217,1.255v3.436h-1.219Z" transform="translate(-141.16 376.86)"/>
</svg>
